<?xml version="1.0" standalone="no"?>
<!DOCTYPE svg PUBLIC "-//W3C//DTD SVG 20010904//EN"
 "http://www.w3.org/TR/2001/REC-SVG-20010904/DTD/svg10.dtd">
<svg version="1.0" xmlns="http://www.w3.org/2000/svg"
 width="841.000000pt" height="1280.000000pt" viewBox="0 0 841.000000 1280.000000"
 preserveAspectRatio="xMidYMid meet">
<metadata>
Created by potrace 1.15, written by Peter Selinger 2001-2017
</metadata>
<g transform="translate(0.000000,1280.000000) scale(0.100000,-0.100000)"
fill="#ffeb3b" stroke="none">
<path d="M1918 12503 c-200 -207 -413 -516 -524 -761 -24 -53 -51 -102 -60
-109 -10 -7 -41 -13 -70 -13 -122 0 -265 -56 -393 -153 -81 -61 -94 -77 -85
-101 11 -28 41 -18 116 39 85 64 171 110 248 130 78 21 88 20 92 -12 2 -21 9
-29 26 -31 19 -3 23 -8 18 -25 -27 -91 -57 -251 -67 -352 -33 -336 69 -687
281 -969 l58 -79 -28 -61 c-15 -33 -284 -608 -597 -1276 -314 -668 -599 -1275
-633 -1348 -38 -82 -60 -141 -58 -155 5 -20 2676 -6988 2681 -6994 2 -1 48 15
103 36 87 35 2393 920 4419 1698 380 145 693 268 697 271 3 4 -600 1589 -1342
3522 l-1348 3515 -449 181 c-246 100 -918 371 -1493 604 -575 232 -1054 426
-1065 430 -14 5 -59 -8 -145 -41 -69 -26 -130 -48 -136 -49 -7 0 -24 39 -38
88 -164 537 -364 889 -591 1041 -52 34 -70 52 -65 62 11 19 -6 59 -25 59 -8 0
-15 3 -15 6 0 3 29 62 64 132 112 219 264 436 460 655 53 59 96 110 96 112 0
7 -31 35 -39 35 -4 0 -46 -39 -93 -87z m-464 -1005 c79 -42 206 -168 279 -278
111 -169 242 -468 320 -733 l35 -118 -21 -8 c-485 -186 -453 -172 -462 -202
-9 -27 -20 -17 -84 76 -209 302 -285 673 -211 1035 22 106 67 260 77 260 3 0
33 -14 67 -32z m1046 -1714 c106 -49 167 -117 202 -226 34 -112 14 -232 -56
-326 -69 -95 -171 -146 -291 -146 -148 1 -263 71 -327 202 -30 61 -33 74 -33
162 0 77 4 104 22 143 l22 48 43 -29 c91 -62 199 -122 217 -122 39 0 41 29 16
176 -14 76 -25 140 -25 141 0 1 8 4 18 7 35 10 139 -6 192 -30z m-257 -99 c8
-49 13 -92 11 -94 -5 -5 -152 88 -160 101 -12 19 112 106 127 90 4 -4 14 -47
22 -97z"/>
</g>
</svg>
